<?xml version="1.0" encoding="UTF-8"?>
<svg version="1.1" xmlns="http://www.w3.org/2000/svg" width="260" height="280">
<path d="M0 0 C85.8 0 171.6 0 260 0 C260 92.4 260 184.8 260 280 C174.2 280 88.4 280 0 280 C0 187.6 0 95.2 0 0 Z " fill="#FDFEFE" transform="translate(0,0)"/>
<path d="M0 0 C8.41004854 2.35471517 16.56984797 5.33513407 24.75 8.375 C26.67041503 9.08590414 28.59115634 9.795917 30.51208496 10.50543213 C31.77868144 10.97333206 33.0450417 11.44187196 34.31115723 11.91107178 C37.54545213 13.10684614 40.78525454 14.28342413 44.03710938 15.43066406 C44.68431946 15.65920074 45.33152954 15.88773743 45.99835205 16.12319946 C47.78993969 16.75363282 49.58291849 17.38010869 51.37597656 18.00634766 C54 19 54 19 55 20 C55.52734375 22.18359375 55.52734375 22.18359375 55 25 C52.79901292 27.38447032 50.19642977 29.18287076 47.5625 31.0625 C46.79405762 31.62976807 46.02561523 32.19703613 45.23388672 32.78149414 C42.83662889 34.54142266 40.42239911 36.27487573 38 38 C37.28473145 38.51014648 36.56946289 39.02029297 35.83251953 39.54589844 C33.06795983 41.51102826 30.2975486 43.46737045 27.51757812 45.41064453 C21.32559657 49.74079054 15.24416493 54.21131567 9.17211914 58.70751953 C2.9208863 63.3329084 -3.36837828 67.90265089 -9.69384766 72.42602539 C-13.05570581 74.83736933 -16.38012591 77.27046416 -19.6171875 79.84765625 C-20.16318604 80.27780029 -20.70918457 80.70794434 -21.27172852 81.15112305 C-22.69756584 82.28370465 -24.10921931 83.434081 -25.51953125 84.5859375 C-28 86 -28 86 -30.40429688 85.75732422 C-33.13383301 84.96095278 -34.75971325 84.01031531 -37.01171875 82.296875 C-37.7601001 81.73540771 -38.50848145 81.17394043 -39.27954102 80.59545898 C-40.07416748 79.98645752 -40.86879395 79.37745605 -41.6875 78.75 C-43.39781262 77.46401227 -45.10876522 76.1788753 -46.8203125 74.89453125 C-47.6855957 74.24178223 -48.55087891 73.5890332 -49.44238281 72.91650391 C-53.28030412 70.0406274 -57.16817728 67.23627604 -61.0625 64.4375 C-62.55469653 63.3619917 -64.04688402 62.28647085 -65.5390625 61.2109375 C-67.02595521 60.14050489 -68.5129343 59.07019227 -70 58 C-81.67027928 49.6012839 -93.3399546 41.19837839 -104.84863281 32.57861328 C-106.32027657 31.49876211 -107.8161596 30.45139167 -109.33105469 29.43310547 C-110.06485352 28.9279541 -110.79865234 28.42280273 -111.5546875 27.90234375 C-112.21710449 27.46269287 -112.87952148 27.02304199 -113.56201172 26.57006836 C-115 25 -115 25 -115.21533203 22.31860352 C-115.14427246 21.55346436 -115.07321289 20.7883252 -115 20 C-105.46162801 15.9068089 -95.79995909 12.16612835 -86.07910156 8.53149414 C-84.34301183 7.87922794 -82.60931101 7.22057163 -80.87792969 6.5559082 C-78.35097044 5.58638775 -75.81730302 4.63684053 -73.28125 3.69140625 C-72.50833618 3.39053604 -71.73542236 3.08966583 -70.93908691 2.77967834 C-65.64166376 0.83978576 -65.64166376 0.83978576 -62.66992188 1.58178711 C-60.75923919 3.20447069 -59.38819148 4.91771278 -58 7 C-62.79988534 8.80062845 -67.60136571 10.59691594 -72.40429688 12.3894043 C-74.03396117 12.99827393 -75.66320316 13.60827523 -77.29199219 14.21948242 C-94.65285305 20.73246796 -94.65285305 20.73246796 -103 23 C-99.18119126 27.12595153 -94.78737498 30.44071663 -90.3125 33.8125 C-89.54744141 34.42287109 -88.78238281 35.03324219 -87.99414062 35.66210938 C-84.04477877 38.61331744 -81.32905639 40.48438883 -76.29296875 39.94921875 C-74.8561644 39.66036351 -73.42517392 39.34164807 -72 39 C-56.55529404 36.08664403 -39.28454684 36.63979714 -24.22265625 41.125 C-20.13530725 42.27946895 -20.13530725 42.27946895 -16 42 C-13.85580483 40.28404493 -12.10780873 38.67349602 -10.25 36.6875 C-9.72849365 36.14859131 -9.2069873 35.60968262 -8.66967773 35.05444336 C-4.53769572 30.72518845 -0.72424893 26.18531222 2.96484375 21.47265625 C5 19 5 19 7.69140625 16.37109375 C10.19325066 14.14562997 10.19325066 14.14562997 11 11 C10.41992188 10.89042969 9.83984375 10.78085938 9.2421875 10.66796875 C4.40253723 9.6856635 0.34633884 8.45178089 -4 6 C-2.84826645 3.53199953 -1.95216435 1.95216435 0 0 Z " fill="#2E84BE" transform="translate(160,120)"/>
<path d="M0 0 C8.48341523 5.74153793 13.60255289 13.29600836 16.640625 23.05859375 C18.44786876 32.82163886 16.34147735 42.70135693 11 51 C8.71767292 53.93363864 6.22968877 56.62582192 3.64501953 59.29492188 C2.39535824 60.59020748 1.15595424 61.89539832 -0.07861328 63.20507812 C-2.43085939 65.69563291 -4.80633179 68.16210382 -7.1875 70.625 C-7.95980957 71.44403809 -8.73211914 72.26307617 -9.52783203 73.10693359 C-10.27532715 73.86828613 -11.02282227 74.62963867 -11.79296875 75.4140625 C-12.4583667 76.1045166 -13.12376465 76.7949707 -13.80932617 77.50634766 C-16.82803105 79.56457082 -18.41059879 79.62681052 -22 79 C-24.22507078 77.36231019 -25.94553678 75.87454445 -27.84375 73.91796875 C-28.3759314 73.38915604 -28.90811279 72.86034332 -29.4564209 72.31550598 C-30.57966099 71.19196731 -31.69545894 70.06094564 -32.80419922 68.9230957 C-34.4759586 67.21210557 -36.17452528 65.53193779 -37.87890625 63.85351562 C-44.26002236 57.46645982 -49.23970475 51.32259239 -53 43 C-53.45375 42.030625 -53.9075 41.06125 -54.375 40.0625 C-56.57735756 29.27094795 -54.38511144 20.39409938 -49.3125 10.8125 C-36.28892635 -5.02698147 -18.49772651 -10.00003997 0 0 Z " fill="#F4FCFA" transform="translate(149,59)"/>
<path d="M0 0 C1.91068268 1.62268358 3.2817304 3.33592567 4.66992188 5.41821289 C-0.12996347 7.21884134 -4.93144383 9.01512883 -9.734375 10.80761719 C-11.36403929 11.41648682 -12.99328128 12.02648812 -14.62207031 12.63769531 C-31.98293118 19.15068085 -31.98293118 19.15068085 -40.33007812 21.41821289 C-36.51126939 25.54416442 -32.1174531 28.85892953 -27.64257812 32.23071289 C-26.87751953 32.84108398 -26.11246094 33.45145508 -25.32421875 34.08032227 C-21.37485689 37.03153033 -18.65913452 38.90260172 -13.62304688 38.36743164 C-12.18624252 38.0785764 -10.75525204 37.75986096 -9.33007812 37.41821289 C-5.03262199 36.58369103 -0.99538593 36.30048212 3.38085938 36.32055664 C4.62480469 36.3237793 5.86875 36.32700195 7.15039062 36.33032227 C8.43558594 36.33870117 9.72078125 36.34708008 11.04492188 36.35571289 C12.35332031 36.36022461 13.66171875 36.36473633 15.00976562 36.36938477 C18.22986468 36.38113695 21.44986958 36.39756746 24.66992188 36.41821289 C20.55678925 39.64995995 17.45264656 41.63365128 12.15039062 41.76196289 C10.86358398 41.80643555 10.86358398 41.80643555 9.55078125 41.85180664 C8.66197266 41.8737207 7.77316406 41.89563477 6.85742188 41.91821289 C0.77440356 42.07017661 -4.54366114 42.46046199 -10.33007812 44.41821289 C-9.44707031 45.04727539 -8.5640625 45.67633789 -7.65429688 46.32446289 C-7.07881104 46.735271 -6.5033252 47.1460791 -5.91040039 47.56933594 C-4.64050147 48.47430067 -3.36882772 49.37677964 -2.09545898 50.27685547 C0.93025712 52.42299853 3.89300045 54.59483994 6.80273438 56.89868164 C11.38402015 60.7964899 11.38402015 60.7964899 16.90429688 62.68774414 C19.04063215 62.46028882 19.04063215 62.46028882 21.66992188 61.41821289 C22.35699743 63.90886177 22.66992188 65.79707581 22.66992188 68.41821289 C24.24917633 70.14869148 24.24917633 70.14869148 26.35742188 71.66821289 C27.04191406 72.20961914 27.72640625 72.75102539 28.43164062 73.30883789 C31.36005613 74.76026896 32.56185112 74.3127168 35.66992188 73.41821289 C37.97317227 72.08795416 37.97317227 72.08795416 40.17382812 70.36352539 C40.99689453 69.74864258 41.81996094 69.13375977 42.66796875 68.50024414 C43.51423828 67.85442383 44.36050781 67.20860352 45.23242188 66.54321289 C46.08255859 65.90512695 46.93269531 65.26704102 47.80859375 64.60961914 C50.83334606 62.33690328 53.85627245 60.06495275 56.81811523 57.71069336 C58.66992188 56.41821289 58.66992188 56.41821289 60.66992188 56.41821289 C60.33992188 54.76821289 60.00992188 53.11821289 59.66992188 51.41821289 C60.50910156 51.5277832 61.34828125 51.63735352 62.21289062 51.75024414 C66.98982597 51.29144244 69.34390841 49.06768371 72.98242188 46.10571289 C78.38181642 41.90574056 82.89713967 38.96288252 89.66992188 37.41821289 C90.65992188 39.89321289 90.65992188 39.89321289 91.66992188 42.41821289 C82.72736681 49.17995412 73.72948421 55.8520376 64.62695312 62.39697266 C50.28721926 72.28535614 50.28721926 72.28535614 36.73779297 83.16186523 C34.66992188 84.41821289 34.66992188 84.41821289 32.1706543 84.2746582 C29.57113035 83.38437899 27.83902881 82.37437098 25.65820312 80.71508789 C24.90982178 80.15362061 24.16144043 79.59215332 23.39038086 79.01367188 C22.59575439 78.40467041 21.80112793 77.79566895 20.98242188 77.16821289 C19.27210925 75.88222516 17.56115665 74.59708819 15.84960938 73.31274414 C14.98432617 72.65999512 14.11904297 72.00724609 13.22753906 71.3347168 C9.38961776 68.45884029 5.50174459 65.65448893 1.60742188 62.85571289 C0.11522534 61.78020459 -1.37696215 60.70468374 -2.86914062 59.62915039 C-4.35603333 58.55871778 -5.84301242 57.48840516 -7.33007812 56.41821289 C-19.0003574 48.01949679 -30.67003272 39.61659128 -42.17871094 30.99682617 C-43.6503547 29.916975 -45.14623773 28.86960456 -46.66113281 27.85131836 C-47.39493164 27.34616699 -48.12873047 26.84101563 -48.88476562 26.32055664 C-49.54718262 25.88090576 -50.20959961 25.44125488 -50.89208984 24.98828125 C-52.33007812 23.41821289 -52.33007812 23.41821289 -52.54541016 20.73681641 C-52.47435059 19.97167725 -52.40329102 19.20653809 -52.33007812 18.41821289 C-42.79170613 14.32502179 -33.13003721 10.58434124 -23.40917969 6.94970703 C-21.67308996 6.29744083 -19.93938913 5.63878452 -18.20800781 4.97412109 C-15.68104856 4.00460064 -13.14738115 3.05505342 -10.61132812 2.10961914 C-9.83841431 1.80874893 -9.06550049 1.50787872 -8.26916504 1.19789124 C-2.97174188 -0.74200135 -2.97174188 -0.74200135 0 0 Z M96.66992188 30.41821289 C97.32992187 30.74821289 97.98992187 31.07821289 98.66992188 31.41821289 C97.14786179 34.04722577 95.82626224 36.26187253 93.66992188 38.41821289 C92.67992187 38.41821289 91.68992188 38.41821289 90.66992188 38.41821289 C92.11245845 35.05229423 94.00256915 32.9077421 96.66992188 30.41821289 Z " fill="#2D84BF" transform="translate(97.330078125,121.581787109375)"/>
<path d="M0 0 C8.48341523 5.74153793 13.60255289 13.29600836 16.640625 23.05859375 C18.44786876 32.82163886 16.34147735 42.70135693 11 51 C8.71767292 53.93363864 6.22968877 56.62582192 3.64501953 59.29492188 C2.39535824 60.59020748 1.15595424 61.89539832 -0.07861328 63.20507812 C-2.43085939 65.69563291 -4.80633179 68.16210382 -7.1875 70.625 C-7.95980957 71.44403809 -8.73211914 72.26307617 -9.52783203 73.10693359 C-10.27532715 73.86828613 -11.02282227 74.62963867 -11.79296875 75.4140625 C-12.4583667 76.1045166 -13.12376465 76.7949707 -13.80932617 77.50634766 C-16.82803105 79.56457082 -18.41059879 79.62681052 -22 79 C-24.22507078 77.36231019 -25.94553678 75.87454445 -27.84375 73.91796875 C-28.3759314 73.38915604 -28.90811279 72.86034332 -29.4564209 72.31550598 C-30.57966099 71.19196731 -31.69545894 70.06094564 -32.80419922 68.9230957 C-34.4759586 67.21210557 -36.17452528 65.53193779 -37.87890625 63.85351562 C-44.26002236 57.46645982 -49.23970475 51.32259239 -53 43 C-53.45375 42.030625 -53.9075 41.06125 -54.375 40.0625 C-56.57735756 29.27094795 -54.38511144 20.39409938 -49.3125 10.8125 C-36.28892635 -5.02698147 -18.49772651 -10.00003997 0 0 Z M-41.59375 14.98046875 C-45.74473331 20.941742 -46.39093435 26.13751092 -46.69140625 33.23046875 C-44.62333404 44.50555169 -37.71367561 52.1113363 -29.625 59.75 C-28.69816406 60.64976563 -27.77132812 61.54953125 -26.81640625 62.4765625 C-24.55752057 64.66558574 -22.28583634 66.83919538 -20 69 C-16.84234286 67.60279886 -14.71293101 65.95955325 -12.28515625 63.515625 C-11.59873047 62.82726562 -10.91230469 62.13890625 -10.20507812 61.4296875 C-9.49802734 60.71039063 -8.79097656 59.99109375 -8.0625 59.25 C-7.35931641 58.54617187 -6.65613281 57.84234375 -5.93164062 57.1171875 C2.11260744 49.00508729 7.98306969 42.51439715 8.5 30.625 C8.29007443 23.06767945 6.18519251 17.59267983 1.16796875 11.93359375 C-6.0394958 5.12417458 -12.91063656 3.32043435 -22.75 3.59375 C-30.84209821 4.60526228 -36.61937854 8.65691635 -41.59375 14.98046875 Z " fill="#63C68C" transform="translate(149,59)"/>
<path d="M0 0 C5.91357447 0.29284474 11.42540801 2.92475355 16.875 5.0625 C17.84953125 5.43955078 18.8240625 5.81660156 19.828125 6.20507812 C22.22077549 7.13164376 24.61126054 8.06340791 27 9 C25.55974484 13.32076548 22.25352748 14.85867566 18.625 17.3125 C17.08064396 18.3768962 15.53773158 19.44338938 13.99609375 20.51171875 C13.18382324 21.0742334 12.37155273 21.63674805 11.53466797 22.21630859 C6.36186429 25.85650352 1.30779977 29.66121662 -3.75341797 33.4543457 C-4.51154785 34.01855225 -5.26967773 34.58275879 -6.05078125 35.1640625 C-6.71762939 35.66373535 -7.38447754 36.1634082 -8.0715332 36.67822266 C-10.01194757 38.0081889 -11.8116694 39.13027527 -14 40 C-16.4375 38.953125 -16.4375 38.953125 -19 37.25 C-21.9495865 35.32557466 -24.8124736 33.5052208 -28 32 C-26.66130947 29.00617156 -25.20221044 26.97944329 -22.83984375 24.71484375 C-22.21489014 24.10664795 -21.58993652 23.49845215 -20.94604492 22.87182617 C-19.95181519 21.91433472 -19.95181519 21.91433472 -18.9375 20.9375 C-13.44715464 15.5626994 -8.38351443 10.12299268 -3.63671875 4.07421875 C-2 2 -2 2 0 0 Z " fill="#F7FCFD" transform="translate(176,134)"/>
<path d="M0 0 C5.06584482 2.83837687 7.63958393 5.76213253 9.85546875 11.1171875 C10.71110347 16.99967619 9.1621409 21.32355271 5.85546875 26.1171875 C2.11139363 29.86126262 -1.02182472 30.41430803 -6.14453125 30.6171875 C-11.26324256 30.4208013 -14.36368116 29.80351634 -18.14453125 26.1171875 C-21.32111534 22.17143054 -22.89263647 18.36591043 -22.58984375 13.16796875 C-21.43599721 7.85420177 -18.37034772 3.57333859 -13.83203125 0.6171875 C-8.82278261 -1.42047297 -4.99043153 -2.05434886 0 0 Z " fill="#2985C4" transform="translate(136.14453125,74.8828125)"/>
<path d="M0 0 C0.66 0.66 1.32 1.32 2 2 C-17.67823658 19.06820869 -17.67823658 19.06820869 -22.90234375 18.9609375 C-26.06528682 17.51199151 -28.77869627 15.49667924 -31.5625 13.4375 C-32.17367676 12.99293457 -32.78485352 12.54836914 -33.41455078 12.09033203 C-34.66811061 11.17761535 -35.91973983 10.26224127 -37.16943359 9.34423828 C-38.89630257 8.07614805 -40.62839051 6.81567851 -42.36328125 5.55859375 C-44.9123395 3.71044387 -47.45770328 1.85743311 -50 0 C-41.48612181 -8.51387819 -10.61519014 -3.97613651 0 0 Z " fill="#F6FCFE" transform="translate(136,166)"/>
<path d="M0 0 C1.546875 0.8353125 1.546875 0.8353125 3.125 1.6875 C3.90875 2.10644531 4.6925 2.52539062 5.5 2.95703125 C7.73015557 4.16619372 9.93279564 5.41114991 12.125 6.6875 C12.125 7.3475 12.125 8.0075 12.125 8.6875 C10.07365466 10.29276876 8.02166208 11.78164189 5.875 13.25 C2.08032816 15.87954315 -1.69294978 18.4995089 -5.30078125 21.3828125 C-5.8309082 21.80232178 -6.36103516 22.22183105 -6.90722656 22.65405273 C-8.36360304 23.81604041 -9.80907149 24.99166084 -11.25390625 26.16796875 C-13.875 27.6875 -13.875 27.6875 -16.4140625 27.6484375 C-19.2923711 26.52452652 -21.30141017 25.08373046 -23.6875 23.125 C-24.87279297 22.16400391 -24.87279297 22.16400391 -26.08203125 21.18359375 C-26.67371094 20.68988281 -27.26539062 20.19617188 -27.875 19.6875 C-24.62815873 16.19090171 -20.96849394 13.5126584 -17.0625 10.8125 C-13.08468199 8.04932982 -9.35230001 5.32884428 -5.875 1.9375 C-2.875 -0.3125 -2.875 -0.3125 0 0 Z " fill="#F3FBFD" transform="translate(145.875,169.3125)"/>
<path d="M0 0 C1.24394531 0.00322266 2.48789063 0.00644531 3.76953125 0.00976562 C5.05472656 0.01814453 6.33992188 0.02652344 7.6640625 0.03515625 C8.97246094 0.03966797 10.28085938 0.04417969 11.62890625 0.04882812 C14.84900531 0.06058031 18.0690102 0.07701082 21.2890625 0.09765625 C16.20586203 3.94511429 13.25238802 5.37735284 6.7265625 5.34765625 C5.59089844 5.3528125 4.45523438 5.35796875 3.28515625 5.36328125 C0.2890625 5.09765625 0.2890625 5.09765625 -2.7109375 3.09765625 C-5.21990436 2.64164364 -5.21990436 2.64164364 -7.8984375 2.47265625 C-8.79949219 2.39789063 -9.70054688 2.323125 -10.62890625 2.24609375 C-11.31597656 2.19710937 -12.00304687 2.148125 -12.7109375 2.09765625 C-12.7109375 1.76765625 -12.7109375 1.43765625 -12.7109375 1.09765625 C-8.41488018 0.27543071 -4.37127147 -0.0200517 0 0 Z " fill="#3F8CC2" transform="translate(100.7109375,157.90234375)"/>
<path d="M0 0 C0.66 1.32 1.32 2.64 2 4 C2.66 3.67 3.32 3.34 4 3 C4 4.32 4 5.64 4 7 C4.99 7.66 5.98 8.32 7 9 C6.195625 8.814375 5.39125 8.62875 4.5625 8.4375 C3.716875 8.293125 2.87125 8.14875 2 8 C1.67 8.33 1.34 8.66 1 9 C-0.99954746 9.04254356 -3.00041636 9.04080783 -5 9 C-5.66 9 -6.32 9 -7 9 C-8.32 9 -9.64 9 -11 9 C-11.625 7.125 -11.625 7.125 -12 5 C-11.34 4.34 -10.68 3.68 -10 3 C-8.32995171 3.31595508 -6.66362417 3.65179959 -5 4 C-2.27497035 3.62277985 -2.27497035 3.62277985 0 3 C0 2.01 0 1.02 0 0 Z " fill="#969696" transform="translate(110,266)"/>
<path d="M0 0 C0.33 0.99 0.66 1.98 1 3 C2.98 3 4.96 3 7 3 C7 4.65 7 6.3 7 8 C7.66 8 8.32 8 9 8 C9 6.35 9 4.7 9 3 C9.99 3 10.98 3 12 3 C12.33 2.34 12.66 1.68 13 1 C13 1.66 13 2.32 13 3 C13.99 3 14.98 3 16 3 C16.33 2.34 16.66 1.68 17 1 C17 1.66 17 2.32 17 3 C17.66 3.33 18.32 3.66 19 4 C18.34 4 17.68 4 17 4 C17 5.32 17 6.64 17 8 C17.66 8.33 18.32 8.66 19 9 C18.01 9 17.02 9 16 9 C16 7.35 16 5.7 16 4 C15.01 4 14.02 4 13 4 C13 5.32 13 6.64 13 8 C13.66 8.33 14.32 8.66 15 9 C11.04 9 7.08 9 3 9 C3 7.35 3 5.7 3 4 C2.34 4 1.68 4 1 4 C1 5.65 1 7.3 1 9 C0.67 9 0.34 9 0 9 C0 6.03 0 3.06 0 0 Z " fill="#747474" transform="translate(60,266)"/>
<path d="M0 0 C1.32 0.33 2.64 0.66 4 1 C3.34 1 2.68 1 2 1 C2 1.66 2 2.32 2 3 C2.5775 2.690625 3.155 2.38125 3.75 2.0625 C5.85801505 1.06704845 7.70653231 0.39542546 10 0 C11 1 11 1 11.0625 4.0625 C11.041875 5.031875 11.02125 6.00125 11 7 C9.35 7.33 7.7 7.66 6 8 C6 7.34 6 6.68 6 6 C5.34 6 4.68 6 4 6 C4 6.66 4 7.32 4 8 C2.68 7.67 1.36 7.34 0 7 C0.99 7 1.98 7 3 7 C3 6.01 3 5.02 3 4 C2.01 4 1.02 4 0 4 C0 2.68 0 1.36 0 0 Z " fill="#878787" transform="translate(160,267)"/>
<path d="M0 0 C2.97 0 5.94 0 9 0 C9.33 1.65 9.66 3.3 10 5 C6.59437148 5.77842938 3.49234244 6.09978121 0 6 C-1.125 2.25 -1.125 2.25 0 0 Z " fill="#929292" transform="translate(119,269)"/>
<path d="M0 0 C1.24394531 0.00322266 2.48789063 0.00644531 3.76953125 0.00976562 C5.05472656 0.01814453 6.33992188 0.02652344 7.6640625 0.03515625 C8.97246094 0.03966797 10.28085938 0.04417969 11.62890625 0.04882812 C14.84900531 0.06058031 18.0690102 0.07701082 21.2890625 0.09765625 C21.2890625 0.42765625 21.2890625 0.75765625 21.2890625 1.09765625 C16.80511362 1.38409267 12.32106382 1.66887813 7.83691406 1.95214844 C6.31214581 2.04870197 4.78740582 2.14570294 3.26269531 2.24316406 C1.0684326 2.38334512 -1.12592743 2.52190554 -3.3203125 2.66015625 C-4.33928619 2.72577759 -4.33928619 2.72577759 -5.37884521 2.79272461 C-8.5013538 2.98797347 -11.57984556 3.09765625 -14.7109375 3.09765625 C-10.87438899 -0.73889226 -5.15615161 -0.02365207 0 0 Z " fill="#D2F2FB" transform="translate(100.7109375,162.90234375)"/>
<path d="M0 0 C2.31 0 4.62 0 7 0 C7.33 1.32 7.66 2.64 8 4 C0.59760355 4.12886183 -6.63959083 3.79725902 -14 3 C-14 2.67 -14 2.34 -14 2 C-9.38 1.67 -4.76 1.34 0 1 C0 0.67 0 0.34 0 0 Z " fill="#2A7DB6" transform="translate(117,159)"/>
<path d="M0 0 C1.9375 0.375 1.9375 0.375 4 1 C4.33 1.66 4.66 2.32 5 3 C5.66 2.01 6.32 1.02 7 0 C7.66 0 8.32 0 9 0 C9.625 2.875 9.625 2.875 10 6 C9.34 6.66 8.68 7.32 8 8 C8 7.34 8 6.68 8 6 C7.2575 6.33 6.515 6.66 5.75 7 C3 8 3 8 -1 8 C-0.67 7.34 -0.34 6.68 0 6 C0.66 6.33 1.32 6.66 2 7 C1.814375 6.38125 1.62875 5.7625 1.4375 5.125 C1 3 1 3 2 1 C1.34 0.67 0.68 0.34 0 0 Z " fill="#464646" transform="translate(173,267)"/>
<path d="M0 0 C0.33 0.99 0.66 1.98 1 3 C-8.41002278 12.59453303 -8.41002278 12.59453303 -13 16 C-13.66 15.67 -14.32 15.34 -15 15 C-10.05 10.05 -5.1 5.1 0 0 Z " fill="#D7EFF9" transform="translate(165,147)"/>
<path d="M0 0 C2.625 0.375 2.625 0.375 5 1 C2 2.5 2 2.5 -1 4 C2.85477249 6.56984833 6.52040582 7.85814266 11 9 C10.67 9.66 10.34 10.32 10 11 C8.41531323 10.54636829 6.83230076 10.08688548 5.25 9.625 C4.36828125 9.36976563 3.4865625 9.11453125 2.578125 8.8515625 C0.23919428 8.0790066 -1.83442562 7.16374324 -4 6 C-2.84826645 3.53199953 -1.95216435 1.95216435 0 0 Z " fill="#4188BA" transform="translate(160,120)"/>
<path d="M0 0 C3.125 0.375 3.125 0.375 6 1 C6 2.32 6 3.64 6 5 C6.66 5.33 7.32 5.66 8 6 C7.443125 5.814375 6.88625 5.62875 6.3125 5.4375 C3.600867 4.92448835 1.65628961 5.3359276 -1 6 C-1.625 4.125 -1.625 4.125 -2 2 C-1.34 1.34 -0.68 0.68 0 0 Z " fill="#888888" transform="translate(100,269)"/>
<path d="M0 0 C1.32 0 2.64 0 4 0 C4.33 0.99 4.66 1.98 5 3 C3.35 4.32 1.7 5.64 0 7 C-1.32 6.34 -2.64 5.68 -4 5 C-2.25 2.5 -2.25 2.5 0 0 Z " fill="#3989BF" transform="translate(161,144)"/>
<path d="M0 0 C0.66 0.33 1.32 0.66 2 1 C-2.42105263 6.77192982 -2.42105263 6.77192982 -5.0625 7.8125 C-6.0215625 7.9053125 -6.0215625 7.9053125 -7 8 C-8.11375 8.2784375 -8.11375 8.2784375 -9.25 8.5625 C-9.8275 8.706875 -10.405 8.85125 -11 9 C-7.56638098 5.36440339 -4.2026393 2.63886654 0 0 Z " fill="#3683B9" transform="translate(191,153)"/>
<path d="M0 0 C1.65 0.33 3.3 0.66 5 1 C4.67 2.65 4.34 4.3 4 6 C2.68 6 1.36 6 0 6 C-1.125 2.25 -1.125 2.25 0 0 Z " fill="#A8A8A8" transform="translate(119,269)"/>
<path d="M0 0 C0.66 0.33 1.32 0.66 2 1 C2 1.66 2 2.32 2 3 C2.31478446 4.33783393 2.64587656 5.67203709 3 7 C1.68 7.33 0.36 7.66 -1 8 C-1.625 5.6875 -1.625 5.6875 -2 3 C-1.34 2.01 -0.68 1.02 0 0 Z " fill="#7E7E7E" transform="translate(198,267)"/>
<path d="M0 0 C0.66 0.33 1.32 0.66 2 1 C2 1.66 2 2.32 2 3 C2.31478446 4.33783393 2.64587656 5.67203709 3 7 C1.68 7.33 0.36 7.66 -1 8 C-1.625 5.6875 -1.625 5.6875 -2 3 C-1.34 2.01 -0.68 1.02 0 0 Z " fill="#7D7D7D" transform="translate(156,267)"/>
<path d="M0 0 C2.0625 0.4375 2.0625 0.4375 4 1 C3.6875 3.375 3.6875 3.375 3 6 C2.01 6.66 1.02 7.32 0 8 C-0.38063221 5.6739143 -0.71269945 3.33944736 -1 1 C-0.67 0.67 -0.34 0.34 0 0 Z " fill="#828282" transform="translate(191,267)"/>
<path d="M0 0 C2.31 0 4.62 0 7 0 C7 0.66 7 1.32 7 2 C9.31 2 11.62 2 14 2 C14.33 2.66 14.66 3.32 15 4 C4.44191344 3.22095672 4.44191344 3.22095672 0 1 C0 0.67 0 0.34 0 0 Z " fill="#D6F0F9" transform="translate(121,157)"/>
<path d="M0 0 C0.33 0.66 0.66 1.32 1 2 C1.99 2 2.98 2 4 2 C4.33 1.34 4.66 0.68 5 0 C5 0.66 5 1.32 5 2 C5.66 2.33 6.32 2.66 7 3 C6.34 3 5.68 3 5 3 C5 4.32 5 5.64 5 7 C5.66 7.33 6.32 7.66 7 8 C6.01 8 5.02 8 4 8 C4 6.35 4 4.7 4 3 C3.01 3 2.02 3 1 3 C1 4.32 1 5.64 1 7 C1.66 7.33 2.32 7.66 3 8 C2.01 8 1.02 8 0 8 C0 5.36 0 2.72 0 0 Z " fill="#4C4C4C" transform="translate(72,267)"/>
<path d="M0 0 C0 3.9765245 -1.38011503 5.0890167 -4 8 C-6.25 9.8125 -6.25 9.8125 -8 11 C-8.66 10.67 -9.32 10.34 -10 10 C-6.7 6.7 -3.4 3.4 0 0 Z " fill="#E9FEF1" transform="translate(152,118)"/>
<path d="M0 0 C-1.5588334 3.82622743 -3.95433582 6.25147379 -7 9 C-7.99 9.33 -8.98 9.66 -10 10 C-8.50006099 6.10015857 -4.53875449 0 0 0 Z " fill="#71C495" transform="translate(110,61)"/>
<path d="M0 0 C4.23429756 1.31061591 8.07407404 2.94356259 12 5 C12 5.33 12 5.66 12 6 C8.37471432 6.20140476 6.13498292 5.85776765 3 4 C3 3.34 3 2.68 3 2 C2.01 2 1.02 2 0 2 C0 1.34 0 0.68 0 0 Z " fill="#D8F4FD" transform="translate(143,169)"/>
<path d="M0 0 C1.32 0 2.64 0 4 0 C4 1.98 4 3.96 4 6 C2.68 6 1.36 6 0 6 C0 4.02 0 2.04 0 0 Z " fill="#E0E0E0" transform="translate(171,268)"/>
<path d="M0 0 C0.66 0.33 1.32 0.66 2 1 C-0.31 3.31 -2.62 5.62 -5 8 C-5.99 7.67 -6.98 7.34 -8 7 C-5.36 4.69 -2.72 2.38 0 0 Z " fill="#E0FAEA" transform="translate(116,66)"/>
<path d="M0 0 C1.32 0 2.64 0 4 0 C4 0.99 4 1.98 4 3 C3.01 3 2.02 3 1 3 C1 3.66 1 4.32 1 5 C1.99 4.67 2.98 4.34 4 4 C4 4.66 4 5.32 4 6 C2.68 6 1.36 6 0 6 C-1.125 2.25 -1.125 2.25 0 0 Z " fill="#6B6B6B" transform="translate(80,269)"/>
<path d="M0 0 C1.9375 0.375 1.9375 0.375 4 1 C4.33 1.66 4.66 2.32 5 3 C5.99 2.67 6.98 2.34 8 2 C8 2.99 8 3.98 8 5 C6.02 5.33 4.04 5.66 2 6 C1.67 5.01 1.34 4.02 1 3 C1.33 2.34 1.66 1.68 2 1 C1.34 0.67 0.68 0.34 0 0 Z " fill="#898989" transform="translate(173,267)"/>
<path d="M0 0 C1.48285242 0.95262034 2.96118201 1.91228405 4.4375 2.875 C5.67306641 3.67550781 5.67306641 3.67550781 6.93359375 4.4921875 C9 6 9 6 10 8 C8.35 7.67 6.7 7.34 5 7 C5 6.34 5 5.68 5 5 C4.360625 4.731875 3.72125 4.46375 3.0625 4.1875 C1 3 1 3 0 0 Z " fill="#D9F4FC" transform="translate(92,179)"/>
<path d="M0 0 C0.66 0 1.32 0 2 0 C1.82374165 2.37948772 1.30280227 3.70225849 -0.40234375 5.37890625 C-1.90649092 6.62115486 -3.45129851 7.81376056 -5 9 C-4.67 7.68 -4.34 6.36 -4 5 C-3.34 5 -2.68 5 -2 5 C-2 4.34 -2 3.68 -2 3 C-1.34 3 -0.68 3 0 3 C0 2.01 0 1.02 0 0 Z " fill="#D4F2FB" transform="translate(169,131)"/>
<path d="M0 0 C1.98 0.66 3.96 1.32 6 2 C4.68 2.33 3.36 2.66 2 3 C2 3.66 2 4.32 2 5 C2.66 5 3.32 5 4 5 C3.67 5.66 3.34 6.32 3 7 C1.68 6.01 0.36 5.02 -1 4 C-0.34 4 0.32 4 1 4 C0.67 2.68 0.34 1.36 0 0 Z " fill="#418ABC" transform="translate(150,167)"/>
<path d="M0 0 C0.99 0.66 1.98 1.32 3 2 C-0.31371 4.20914 -1.3446021 4.22481553 -5.1875 4.125 C-6.08855469 4.10695313 -6.98960937 4.08890625 -7.91796875 4.0703125 C-8.60503906 4.04710938 -9.29210937 4.02390625 -10 4 C-10 3.67 -10 3.34 -10 3 C-8.72125 2.87625 -7.4425 2.7525 -6.125 2.625 C-2.65209064 2.30957601 -2.65209064 2.30957601 0 0 Z " fill="#3181B4" transform="translate(136,101)"/>
<path d="M0 0 C0.66 0.33 1.32 0.66 2 1 C-1.17320782 4.53586014 -3.16743695 6.58578031 -8 7 C-5.4837822 4.39391727 -2.94865641 2.10618315 0 0 Z " fill="#D8F3FB" transform="translate(189,163)"/>
<path d="M0 0 C0.99 0.33 1.98 0.66 3 1 C-0.465 3.97 -0.465 3.97 -4 7 C-3.67 5.68 -3.34 4.36 -3 3 C-2.01 2.67 -1.02 2.34 0 2 C0 1.34 0 0.68 0 0 Z " fill="#D2F0FB" transform="translate(147,156)"/>
</svg>
